<svg xmlns="http://www.w3.org/2000/svg" viewBox="0 0 363.61 110.42"><defs><style>.cls-1{fill:#fff;}</style></defs><title>Humrang Logo SVG</title><g id="Layer_2" data-name="Layer 2"><g id="Layer_1-2" data-name="Layer 1"><path class="cls-1" d="M55.65,39.53c-1.62-.15-2.8-.22-3.53-.22q3.09-11.82,6.24-22.64T63.71,0c-2.28,0-4.3,1.92-6.07,5.74a131.56,131.56,0,0,0-4.58,12.37q-3.15,9.39-6.57,20.76-10.17-1-18.77-1c-1.62,0-3.76.08-6.41.22l8.61-28a16.9,16.9,0,0,0,.89-4.75,6,6,0,0,0-1.16-3.81A4.68,4.68,0,0,0,25.73,0C23,0,19.88,1.09,16.34,3.26a31.73,31.73,0,0,0-9,8.28q-3.69,5-3.7,9.77a6.41,6.41,0,0,0,1.61,4.58C6.31,27,8,27.6,10.27,27.6a11.74,11.74,0,0,1-.55-3.75,23.9,23.9,0,0,1,2-8.72,28.47,28.47,0,0,1,5.13-8.51Q20,3.09,23.41,3.09a1.71,1.71,0,0,1,1.27.33A2,2,0,0,1,25,4.64a12.77,12.77,0,0,1-.72,4.08c-.48,1.4-.76,2.21-.83,2.43Q18.11,26.39,14,38.87,5,40.74,4.86,45.6l7.29-.77Q6.51,62.05,4,71.55T0,89.11a7,7,0,0,0,4.31-1.77A10.64,10.64,0,0,0,7.62,82q2.33-8,11.81-37.87,4.65-.45,10.77-.61t15-.16q-4.08,13.14-5.85,20.42Q36.66,74.1,36.66,80.5q0,4.31,1.71,6.23t5.91,2.38a35.39,35.39,0,0,1-.22-4q0-9.37,3.64-26.72,1.11-5.62,3.42-15.13a18.13,18.13,0,0,0,5-.6,10.09,10.09,0,0,0,4.31-2.93C59.44,39.75,57.86,39.68,55.65,39.53Z"/><path class="cls-1" d="M362.17,61.61a32.58,32.58,0,0,1-7.34,11,38.63,38.63,0,0,1-10.66,7.67A173.73,173.73,0,0,0,350.25,62q2.43-9,2.43-12a9.84,9.84,0,0,0-2.32-.33,4.56,4.56,0,0,0-3.81,1.77,9.21,9.21,0,0,0-1.82,3.86l-1.33,5.85a61,61,0,0,1-8.89,10.49q-4.47,4.09-7.45,4.09a3.36,3.36,0,0,1-2.82-1.38,6.59,6.59,0,0,1-1.05-4q0-4.75,3.21-10.71a33.29,33.29,0,0,1,8.33-10.16,16.69,16.69,0,0,1,10.66-4.2q3.32,0,4.42,1.66a2.11,2.11,0,0,0,.82-.72,2.27,2.27,0,0,0,.5-1.49,3,3,0,0,0-1.49-2.54,8.13,8.13,0,0,0-4.47-1q-6.07,0-13,4A36.83,36.83,0,0,0,320.6,55.87,24.22,24.22,0,0,0,316,67.61a57.06,57.06,0,0,1-4.36,6.26q-4,5-7.79,5-3.31,0-3.31-4.2a11.75,11.75,0,0,1,.55-3.53c.37-1.18.89-2.58,1.55-4.2a42.25,42.25,0,0,0,1.82-5.07,17.67,17.67,0,0,0,.61-4.64,11.89,11.89,0,0,0-2-7,7,7,0,0,0-6.12-2.93q-5.75,0-11.71,5.63A75.49,75.49,0,0,0,274,66.69q1.55-4.63,2.54-8.77a29.73,29.73,0,0,0,1-5.8c0-1.91-1-2.87-3-2.87a6.43,6.43,0,0,0-2.87.71,7.18,7.18,0,0,0-2.21,1.61,38.93,38.93,0,0,1-1.88,10.32c-.1.33-.22.69-.32,1a53.72,53.72,0,0,1-8.84,11.56q-4.86,4.58-8.06,4.58a3.13,3.13,0,0,1-2.82-1.49,6.23,6.23,0,0,1-.93-3.37,11.34,11.34,0,0,1,1.1-4.58,59.71,59.71,0,0,1,3-5.69c.15-.22.57-1,1.27-2.26A7,7,0,0,0,253,58.85c0-.73-.5-1.34-1.49-1.82a10.39,10.39,0,0,0-2.93-.94,202.31,202.31,0,0,1-12.8,17.06q-6,7-10.38,7-3,0-3-4.3,0-5.42,3.59-12.92A46.69,46.69,0,0,1,234.92,50q5.36-5.42,10.21-5.41a4.86,4.86,0,0,1,4.09,1.71,7.11,7.11,0,0,1,1.32,4.47,14.35,14.35,0,0,1-.55,3.87,6.33,6.33,0,0,0,4-1.11,4.29,4.29,0,0,0,1.44-3.64,7.32,7.32,0,0,0-2.87-6,11.05,11.05,0,0,0-7.18-2.32q-6.84,0-14,5.63A47.7,47.7,0,0,0,219.46,61a39.94,39.94,0,0,0-3.36,7.21c-.26.34-.5.67-.78,1a34.86,34.86,0,0,1-7,6.57,12.68,12.68,0,0,1-7.13,2.65c-2.2,0-3.31-1.11-3.31-3.31q0-2.32,2.43-7.62,1.55-3.87,2.32-6.24a15.54,15.54,0,0,0,.77-4.8,9.37,9.37,0,0,0-1.93-6.13,27,27,0,0,0-5.36-4.81,21.68,21.68,0,0,1-3-2.37,2.85,2.85,0,0,1-.94-2,17.21,17.21,0,0,1,.66-2.1,8.05,8.05,0,0,0,.55-2c0-1.77-.51-2.65-1.54-2.65a3.31,3.31,0,0,0-1.82,1,8.12,8.12,0,0,0-2,2.76,8.79,8.79,0,0,0-.83,3.76,3.64,3.64,0,0,0,1.1,2.65,154.22,154.22,0,0,1-8.94,21l.05.09A66.2,66.2,0,0,1,174.24,74q-3.65,5-7.73,5-3.31,0-3.31-3.75c0-1.55.62-4.27,1.88-8.17q1.09-3.44,1.65-5.8a19.66,19.66,0,0,0,.56-4.47,8.19,8.19,0,0,0-1.5-5.08q-1.48-2-4.8-2-5.09,0-9.61,4.69a58.61,58.61,0,0,0-8.72,12.31A56.08,56.08,0,0,0,145,59.41a34.2,34.2,0,0,0,1.1-8.18,11.78,11.78,0,0,0-1.38-6.07,4.91,4.91,0,0,0-4.58-2.32q-5.42,0-11.65,6.19a82.52,82.52,0,0,0-11.65,14.79q2.88-9.6,2.87-12.59c0-1.91-1-2.87-3-2.87a6.35,6.35,0,0,0-2.87.72,7.17,7.17,0,0,0-2.21,1.6,45,45,0,0,1-1.82,10.71c-.11.42-.24.86-.36,1.28A43.19,43.19,0,0,1,104,71.11a31.76,31.76,0,0,1-6.74,6.24,11.1,11.1,0,0,1-5.74,2.15q-3.65,0-3.65-4.41a26,26,0,0,1,1.72-8.34q1.71-4.92,4.25-10.55c.29-.66.6-1.41.93-2.26a7,7,0,0,0,.5-1.49c0-1.25-1.76-2.21-5.3-2.87l-1.76,3.64a175.61,175.61,0,0,1-9.89,18.06q-4.57,7.11-8.44,7.12A3.14,3.14,0,0,1,66.75,76a15.38,15.38,0,0,1-.83-5,34.55,34.55,0,0,1,2.54-11.76,56.94,56.94,0,0,1,4.86-10.43,8.78,8.78,0,0,0-2.15-1.55,4.79,4.79,0,0,0-1.94-.66c-1,0-2.33,1.49-3.92,4.47a53.9,53.9,0,0,0-4.08,10.49,38.23,38.23,0,0,0-1.71,10.1,13.31,13.31,0,0,0,2.31,7.9,7.05,7.05,0,0,0,6,3.25q3.86,0,7.4-3.69a49.87,49.87,0,0,0,7.06-10,25.48,25.48,0,0,0-.77,5.52q0,8.17,7.73,8.17a15.93,15.93,0,0,0,8.17-2.59,30.86,30.86,0,0,0,8-7.18c.51-.64,1-1.31,1.47-2-.41,1.27-.85,2.58-1.31,3.92-1,3.24-1.55,5-1.55,5.18,0,.52.72,1,2.16,1.55a11.3,11.3,0,0,0,3.81.77,78.36,78.36,0,0,1,7.4-14.85A72.42,72.42,0,0,1,127,55.1q4.9-5,8-5,2.76,0,2.76,4.2a29.14,29.14,0,0,1-1.38,8Q135,67,132.72,73.87a34.32,34.32,0,0,0-1.87,5.85c0,.67.64,1.2,1.93,1.6a12.18,12.18,0,0,0,3.7.61l1-2.1a88.52,88.52,0,0,1,4.31-8.17q6.08-9.27,9-12.86t5.46-3.59a3,3,0,0,1,2.27,1,4.25,4.25,0,0,1,.94,3,12.93,12.93,0,0,1-.5,3.2q-.49,1.88-1,3.75a32.63,32.63,0,0,0-1.77,8.72,8.79,8.79,0,0,0,1.88,5.8,6.76,6.76,0,0,0,5.52,2.27q6.08,0,11-5.8a46.61,46.61,0,0,0,8.06-14l0,0c.73-1.44,1.51-3.06,2.36-4.87q2.76-5.91,5.19-12.09.56.33,2.1,1.38a12.77,12.77,0,0,1,2.82,2.65,6.86,6.86,0,0,1,1.27,4.36,13.06,13.06,0,0,1-.72,4c-.48,1.43-1.2,3.37-2.16,5.8q-3.19,7.07-3.2,10.82a6.74,6.74,0,0,0,2.16,5.19,8.37,8.37,0,0,0,5.9,2q6.63,0,13.14-5.85A41.69,41.69,0,0,0,215,73a20.44,20.44,0,0,0-.19,2.55q0,4.41,2.27,6.79a7.8,7.8,0,0,0,5.91,2.37,12.59,12.59,0,0,0,7.78-3.09,53.09,53.09,0,0,0,8.89-9.72,17.66,17.66,0,0,0-.33,3.21,7.87,7.87,0,0,0,2,5.46,7.54,7.54,0,0,0,5.91,2.26,15.56,15.56,0,0,0,8.06-2.54,29.78,29.78,0,0,0,7.84-7.12c.36-.45.7-.94,1-1.41-.37,1-.75,2-1.15,3a20.58,20.58,0,0,0-1.44,4A5.3,5.3,0,0,0,264,80.55a9.17,9.17,0,0,0,3.42.61q4.53-7.62,8.12-13a58.77,58.77,0,0,1,8.17-9.83q4.57-4.41,8.78-4.41c2.94,0,4.42,1.8,4.42,5.41a18.39,18.39,0,0,1-.5,4c-.33,1.47-.72,2.87-1.16,4.2s-.72,2.52-1.05,3.81a13.8,13.8,0,0,0-.5,3.36,6.86,6.86,0,0,0,2,5.14,7.91,7.91,0,0,0,5.74,1.93q8.15,0,14.57-9.95a11.5,11.5,0,0,0,2.11,5.81,7.18,7.18,0,0,0,6.07,2.93q8.16,0,18-14.14a149.09,149.09,0,0,1-5.64,18.22q-6.84,3.42-11,5.91a32.93,32.93,0,0,0-7.34,6A11,11,0,0,0,315,104a6,6,0,0,0,1.88,4.8,6.73,6.73,0,0,0,4.53,1.6q5.73,0,11-7.18T343,83.48A50,50,0,0,0,355.27,75a29.87,29.87,0,0,0,8.34-12.26Zm-34.72,40.47q-3.81,4.82-6.35,4.81a2.24,2.24,0,0,1-1.94-1,4.91,4.91,0,0,1-.71-2.82q0-4.3,4.41-7.84a75.24,75.24,0,0,1,12.48-7.62Q331.26,97.28,327.45,102.08Z"/></g></g></svg>